<svg id="visual" viewBox="0 0 900 600" width="100%" height="100%" xmlns="http://www.w3.org/2000/svg" xmlns:xlink="http://www.w3.org/1999/xlink" version="1.1"><path d="M754 600L765.5 585.7C777 571.3 800 542.7 757.7 514.2C715.3 485.7 607.7 457.3 608.8 428.8C610 400.3 720 371.7 759.8 343C799.7 314.3 769.3 285.7 770.2 257C771 228.3 803 199.7 771.3 171.2C739.7 142.7 644.3 114.3 588.7 85.8C533 57.3 517 28.7 509 14.3L501 0L900 0L900 14.3C900 28.7 900 57.3 900 85.8C900 114.3 900 142.7 900 171.2C900 199.7 900 228.3 900 257C900 285.7 900 314.3 900 343C900 371.7 900 400.3 900 428.8C900 457.3 900 485.7 900 514.2C900 542.7 900 571.3 900 585.7L900 600Z" fill="#212529" stroke-linecap="round" stroke-linejoin="miter"></path></svg>