<svg id="visual" viewBox="0 0 900 600" width="900" height="600" xmlns="http://www.w3.org/2000/svg" xmlns:xlink="http://www.w3.org/1999/xlink" version="1.1"><path d="M490 600L512 585.7C534 571.3 578 542.7 576.8 514.2C575.7 485.7 529.3 457.3 542.3 428.8C555.3 400.3 627.7 371.7 659.8 343C692 314.3 684 285.7 658.3 257C632.7 228.3 589.3 199.7 598.5 171.2C607.7 142.7 669.3 114.3 719.5 85.8C769.7 57.3 808.3 28.7 827.7 14.3L847 0L900 0L900 14.3C900 28.7 900 57.3 900 85.8C900 114.3 900 142.7 900 171.2C900 199.7 900 228.3 900 257C900 285.7 900 314.3 900 343C900 371.7 900 400.3 900 428.8C900 457.3 900 485.7 900 514.2C900 542.7 900 571.3 900 585.7L900 600Z" fill="#212529" stroke-linecap="round" stroke-linejoin="miter"></path></svg>