<svg id="visual" viewBox="0 0 900 600"width="100%" height="100%" xmlns="http://www.w3.org/2000/svg" xmlns:xlink="http://www.w3.org/1999/xlink" version="1.1"><path d="M542 600L559.2 585.7C576.3 571.3 610.7 542.7 627.3 514.2C644 485.7 643 457.3 631.7 428.8C620.3 400.3 598.7 371.7 588.3 343C578 314.3 579 285.7 609.2 257C639.3 228.3 698.7 199.7 708.5 171.2C718.3 142.7 678.7 114.3 683.7 85.8C688.7 57.3 738.3 28.7 763.2 14.3L788 0L900 0L900 14.3C900 28.7 900 57.3 900 85.8C900 114.3 900 142.7 900 171.2C900 199.7 900 228.3 900 257C900 285.7 900 314.3 900 343C900 371.7 900 400.3 900 428.8C900 457.3 900 485.7 900 514.2C900 542.7 900 571.3 900 585.7L900 600Z" fill="#212529" stroke-linecap="round" stroke-linejoin="miter"></path></svg>