<svg id="visual" viewBox="0 0 900 600" width="900" height="600" xmlns="http://www.w3.org/2000/svg" xmlns:xlink="http://www.w3.org/1999/xlink" version="1.1"><rect x="0" y="0" width="900" height="600" fill="#FFFFFF"></rect><path d="M0 378L21.5 390.7C43 403.3 86 428.7 128.8 446.8C171.7 465 214.3 476 257.2 479.7C300 483.3 343 479.7 385.8 464.3C428.7 449 471.3 422 514.2 414.2C557 406.3 600 417.7 642.8 435.3C685.7 453 728.3 477 771.2 486.3C814 495.7 857 490.3 878.5 487.7L900 485L900 601L878.5 601C857 601 814 601 771.2 601C728.3 601 685.7 601 642.8 601C600 601 557 601 514.2 601C471.3 601 428.7 601 385.8 601C343 601 300 601 257.2 601C214.3 601 171.7 601 128.8 601C86 601 43 601 21.5 601L0 601Z" fill="#212529" stroke-linecap="round" stroke-linejoin="miter"></path></svg>